<svg viewBox="0 0 150 150" fill="none" xmlns="http://www.w3.org/2000/svg" x="-30"> <path d="M137.934 19.7286L115.321 6.66646C113.701 5.73832 111.867 5.25 110 5.25C108.134 5.25 106.299 5.73832 104.68 6.66646L82.0672 19.7286C80.4492 20.6628 79.1056 22.0064 78.1716 23.6246C77.2377 25.2427 76.7462 27.0782 76.7466 28.9465V55.1241C76.7601 56.9788 77.2582 58.7979 78.1915 60.4007C79.1248 62.0037 80.4608 63.3348 82.0672 64.2622L104.68 77.3244C106.298 78.2583 108.133 78.75 110 78.75C111.868 78.75 113.703 78.2583 115.321 77.3244L137.934 64.2622C139.552 63.328 140.895 61.9844 141.829 60.3662C142.763 58.748 143.255 56.9126 143.254 55.0443V28.8667C143.241 27.012 142.743 25.1929 141.809 23.59C140.876 21.9871 139.54 20.656 137.934 19.7286ZM82.0672 28.9465C82.0659 28.0112 82.3111 27.0921 82.778 26.2818C83.2452 25.4714 83.9176 24.7986 84.7275 24.331L107.34 11.2821C108.148 10.8118 109.066 10.5641 110 10.5641C110.935 10.5641 111.853 10.8118 112.661 11.2821L135.273 24.331C136.072 24.7918 136.737 25.4521 137.203 26.2472C137.669 27.0424 137.921 27.9451 137.934 28.8667V31.527C137.927 33.598 137.1 35.582 135.634 37.0451C134.169 38.5082 132.183 39.3316 130.112 39.3351H89.8885C87.0691 39.3284 84.3239 40.2388 82.0672 41.9289V28.9465ZM137.934 55.0443C137.935 55.9796 137.69 56.8987 137.223 57.7091C136.756 58.5193 136.083 59.1922 135.273 59.6598L112.661 72.7087C111.852 73.1757 110.934 73.4215 110 73.4215C109.066 73.4215 108.149 73.1757 107.34 72.7087L84.7275 59.6598C83.9291 59.199 83.2642 58.5387 82.7979 57.7436C82.3315 56.9485 82.0797 56.0457 82.0672 55.1241V52.4638C82.0743 50.3928 82.9009 48.4088 84.3666 46.9456C85.8322 45.4826 87.8175 44.6593 89.8885 44.6557H130.112C132.932 44.6624 135.677 43.7521 137.934 42.062V55.0443Z" fill="#7B3FE4"></path><path d="M97.6295 27.6165H102.79V35.3448H108.111V27.6165C108.111 26.2054 107.551 24.8521 106.553 23.8542C105.555 22.8565 104.202 22.2959 102.79 22.2959H97.6295C96.2184 22.2959 94.8651 22.8565 93.8672 23.8542C92.8694 24.8521 92.3088 26.2054 92.3088 27.6165V35.3448H97.6295V27.6165Z" fill="#7B3FE4"></path><path d="M102.79 56.3736H97.6295V48.6455H92.3088V56.3736C92.3088 57.7848 92.8694 59.1382 93.8672 60.1359C94.8651 61.1337 96.2184 61.6942 97.6295 61.6942H102.79C104.202 61.6942 105.555 61.1337 106.553 60.1359C107.551 59.1382 108.111 57.7848 108.111 56.3736V48.6455H102.79V56.3736Z" fill="#7B3FE4"></path><path d="M118.593 27.6165H123.767V35.3448H129.088V27.6165C129.088 26.2054 128.527 24.8521 127.529 23.8542C126.531 22.8565 125.178 22.2959 123.767 22.2959H118.593C117.182 22.2959 115.828 22.8565 114.83 23.8542C113.833 24.8521 113.272 26.2054 113.272 27.6165V35.3448H118.593V27.6165Z" fill="#7B3FE4"></path><path d="M123.767 56.3736H118.593V48.6455H113.272V56.3736C113.272 57.7848 113.833 59.1382 114.83 60.1359C115.828 61.1337 117.182 61.6942 118.593 61.6942H123.767C125.178 61.6942 126.531 61.1337 127.529 60.1359C128.527 59.1382 129.088 57.7848 129.088 56.3736V48.6455H123.767V56.3736Z" fill="#7B3FE4"></path>
</svg>